<?xml version="1.0" encoding="iso-8859-1"?>
<!-- Generator: Adobe Illustrator 19.0.0, SVG Export Plug-In . SVG Version: 6.00 Build 0)  -->
<svg version="1.1" id="Capa_1" xmlns="http://www.w3.org/2000/svg" xmlns:xlink="http://www.w3.org/1999/xlink" x="0px" y="0px"
	 viewBox="0 0 512 512" style="enable-background:new 0 0 512 512;" xml:space="preserve">
<g>
	<g>
		<path d="M181.692,351.664l-14.785-12.573c-20.907-17.781-32.898-43.72-32.898-71.166v-50.716c0-20.968-17.06-38.028-38.028-38.028
			s-38.028,17.059-38.028,38.028v99.939c0,20.74,5.977,40.894,17.286,58.28l14.296,21.979c1.443,2.219,3.706,3.774,6.294,4.327
			l0.58,0.124c5.402,1.154,10.714-2.29,11.868-7.689c0.796-3.728-0.597-7.413-3.313-9.719l-12.96-19.925
			c-9.193-14.134-14.052-30.517-14.052-47.376v-99.939c0-9.941,8.088-18.03,18.03-18.03c9.941,0,18.03,8.088,18.03,18.03v50.716
			c0,33.321,14.558,64.812,39.941,86.4l14.785,12.572c18.505,15.738,29.118,38.695,29.118,62.986v62.118h-92.113l-49.247-63.234
			C32.974,398.569,20.02,360.854,20.018,322.57V93.031c0-10.475,8.522-18.998,18.998-18.999c5.076,0,9.847,1.975,13.435,5.564
			c3.588,3.589,5.565,8.36,5.565,13.435v34.247c0,5.522,4.477,9.999,9.999,9.999s9.999-4.478,9.999-9.999V93.031
			c0-10.417-4.057-20.21-11.422-27.576c-7.366-7.365-17.161-11.422-27.577-11.421C17.512,54.035,0.02,71.53,0.02,93.031v229.539
			c0.002,42.714,14.455,84.792,40.695,118.484l52.25,67.09c1.895,2.432,4.807,3.855,7.889,3.855h106.999
			c5.523,0,9.999-4.477,9.999-9.997v-72.117C217.852,399.719,204.672,371.208,181.692,351.664z"/>
	</g>
</g>
<g>
	<g>
		<path d="M472.985,54.034c-0.001,0-0.001,0-0.002,0c-10.415,0-20.208,4.057-27.574,11.421
			c-7.365,7.365-11.422,17.159-11.422,27.576v31.498c0,5.522,4.477,9.999,9.999,9.999s9.999-4.478,9.999-9.999V93.031
			c0-5.076,1.976-9.846,5.565-13.435c3.588-3.587,8.358-5.564,13.433-5.564h0.001c10.475,0.001,18.998,8.523,18.998,18.999v229.535
			c-0.002,38.285-12.956,76-36.475,106.198l-49.247,63.234h-92.113v-62.118c0-24.291,10.613-47.248,29.118-62.985l14.784-12.574
			c25.383-21.587,39.941-53.078,39.941-86.399v-50.716c0-9.941,8.088-18.03,18.03-18.03c9.941,0,18.03,8.088,18.03,18.03v99.939
			c0,16.86-4.86,33.242-14.052,47.376l-12.96,19.925c-2.716,2.306-4.109,5.992-3.313,9.719c1.154,5.401,6.461,8.841,11.868,7.689
			l0.58-0.124c2.588-0.553,4.851-2.108,6.294-4.327l14.296-21.979c11.308-17.386,17.286-37.539,17.286-58.28v-99.939
			c0-20.968-17.06-38.028-38.028-38.028c-20.968,0-38.028,17.059-38.028,38.028v50.716c0,27.446-11.991,53.385-32.898,71.167
			l-14.784,12.573c-22.98,19.544-36.16,48.054-36.16,78.22V502c0,5.522,4.477,9.999,9.999,9.999h106.999
			c3.083,0,5.994-1.423,7.888-3.855l52.25-67.09c26.24-33.692,40.694-75.77,40.696-118.485V93.031
			C511.98,71.53,494.486,54.035,472.985,54.034z"/>
	</g>
</g>
<g>
	<g>
		<path d="M451.055,151.457c-1.86-1.861-4.44-2.93-7.07-2.93c-2.63,0-5.21,1.07-7.069,2.93s-2.93,4.44-2.93,7.069
			s1.07,5.21,2.93,7.068c1.86,1.861,4.44,2.931,7.069,2.931c2.629,0,5.209-1.07,7.07-2.931c1.86-1.859,2.93-4.439,2.93-7.068
			S452.915,153.318,451.055,151.457z"/>
	</g>
</g>
<g>
	<g>
		<path d="M385.219,135.046c6.35-10.32,4.757-23.466-3.876-31.972l-9.986-9.837c-1.223-1.204-1.854-2.877-1.732-4.59l1-14.052
			c0.864-12.144-6.673-23.079-18.329-26.592l-13.225-3.987c-1.654-0.499-2.997-1.694-3.684-3.28l-5.535-12.768
			c-4.798-11.068-16.871-17.415-28.705-15.09l-13.415,2.633c-1.705,0.337-3.459-0.099-4.811-1.191L272.243,5.7
			c-9.412-7.601-23.075-7.598-32.487-0.001l-10.681,8.623c-1.352,1.089-3.105,1.523-4.809,1.191l-13.418-2.634
			c-11.831-2.32-23.904,4.022-28.703,15.087l-5.538,12.771c-0.687,1.586-2.03,2.78-3.684,3.279l-13.222,3.986
			c-11.655,3.515-19.192,14.45-18.328,26.593l1,14.052c0.122,1.713-0.509,3.386-1.732,4.59l-9.987,9.838
			c-8.631,8.504-10.225,21.651-3.875,31.972l7.384,11.999c0.898,1.46,1.112,3.233,0.588,4.864l-4.321,13.437
			c-3.716,11.554,0.979,23.953,11.416,30.149l11.967,7.104c1.481,0.879,2.496,2.357,2.785,4.054l2.356,13.815
			c2.053,12.041,12.006,20.874,24.206,21.48l13.71,0.682c1.73,0.086,3.324,0.927,4.372,2.306l8.358,10.997
			c4.996,6.574,12.762,10.183,20.673,10.183c3.675,0,7.379-0.779,10.852-2.401l12.391-5.786c1.575-0.735,3.383-0.735,4.958-0.001
			l12.392,5.786c10.954,5.115,24.213,1.841,31.528-7.783l8.355-10.995c1.048-1.379,2.642-2.22,4.374-2.306l13.711-0.682
			c12.2-0.606,22.154-9.439,24.206-21.479l2.356-13.816c0.289-1.698,1.305-3.175,2.784-4.054l11.969-7.104
			c10.437-6.196,15.132-18.594,11.416-30.149l-4.321-13.436c-0.524-1.632-0.31-3.405,0.588-4.864L385.219,135.046z M368.186,124.563
			l-7.384,12c-3.965,6.441-4.91,14.266-2.595,21.466l4.321,13.437c0.842,2.618-0.222,5.427-2.586,6.83l-11.969,7.104
			c-6.534,3.879-11.012,10.399-12.289,17.889l-2.356,13.817c-0.465,2.727-2.72,4.729-5.485,4.867l-13.709,0.682
			c-7.64,0.378-14.678,4.089-19.306,10.179l-8.354,10.994c-1.658,2.183-4.663,2.924-7.143,1.765l-12.393-5.788
			c-6.951-3.246-14.926-3.246-21.878,0v0.001l-12.394,5.787c-2.482,1.161-5.485,0.417-7.141-1.763l-8.358-10.998
			c-4.629-6.09-11.665-9.799-19.302-10.177l-13.708-0.682c-2.765-0.138-5.02-2.139-5.485-4.868l-2.356-13.816
			c-1.277-7.49-5.756-14.01-12.289-17.889l-11.968-7.104c-2.364-1.404-3.428-4.213-2.586-6.831l4.321-13.437
			c2.315-7.199,1.369-15.025-2.595-21.466l-7.384-11.999c-1.439-2.339-1.078-5.318,0.878-7.244l9.986-9.837
			c5.397-5.317,8.184-12.7,7.645-20.256l-1-14.052c-0.196-2.752,1.512-5.229,4.153-6.026l13.221-3.986
			c7.299-2.201,13.226-7.474,16.26-14.471l5.538-12.771c0.937-2.161,3.097-3.526,5.392-3.526c0.369,0,0.741,0.036,1.111,0.108
			l13.42,2.635c7.523,1.474,15.258-0.442,21.221-5.256l10.681-8.623c2.132-1.723,5.228-1.722,7.36,0.001l10.681,8.618
			c5.964,4.817,13.701,6.732,21.223,5.256L305,32.5c2.683-0.522,5.417,0.911,6.504,3.42l5.535,12.768
			c3.033,6.998,8.96,12.274,16.261,14.474l13.224,3.987c2.641,0.796,4.349,3.273,4.153,6.025l-1,14.052
			c-0.539,7.556,2.249,14.941,7.645,20.256l9.985,9.836C369.263,119.245,369.624,122.224,368.186,124.563z"/>
	</g>
</g>
<g>
	<g>
		<path d="M279.128,87.755c-4.81-2.714-10.908-1.018-13.623,3.792l-46.373,82.146c-2.715,4.81-1.018,10.908,3.792,13.623
			c1.554,0.877,3.241,1.294,4.907,1.294c3.49,0,6.88-1.83,8.716-5.086l46.373-82.146C285.635,96.568,283.938,90.47,279.128,87.755z"
			/>
	</g>
</g>
<g>
	<g>
		<path d="M286.136,140.284c-14.34,0-26.006,11.666-26.006,26.006s11.666,26.007,26.006,26.007s26.006-11.667,26.006-26.007
			S300.476,140.284,286.136,140.284z M286.136,172.298c-3.313,0-6.008-2.696-6.008-6.009s2.695-6.008,6.008-6.008
			c3.313,0,6.008,2.695,6.008,6.008C292.143,169.604,289.449,172.298,286.136,172.298z"/>
	</g>
</g>
<g>
	<g>
		<path d="M225.863,73.809c-14.34,0-26.006,11.667-26.006,26.007s11.666,26.006,26.006,26.006s26.006-11.666,26.006-26.006
			S240.203,73.809,225.863,73.809z M225.863,105.823c-3.313,0-6.008-2.695-6.008-6.008c0-3.314,2.695-6.009,6.008-6.009
			s6.008,2.696,6.008,6.009S229.176,105.823,225.863,105.823z"/>
	</g>
</g>
<g>
	<g>
		<path d="M75.084,157.956c-1.86-1.861-4.44-2.93-7.069-2.93c-2.63,0-5.21,1.07-7.069,2.93s-2.93,4.44-2.93,7.069
			s1.07,5.21,2.93,7.068c1.86,1.861,4.44,2.931,7.069,2.931c2.629,0,5.209-1.07,7.069-2.931c1.86-1.859,2.93-4.439,2.93-7.068
			S76.944,159.817,75.084,157.956z"/>
	</g>
</g>
<g>
</g>
<g>
</g>
<g>
</g>
<g>
</g>
<g>
</g>
<g>
</g>
<g>
</g>
<g>
</g>
<g>
</g>
<g>
</g>
<g>
</g>
<g>
</g>
<g>
</g>
<g>
</g>
<g>
</g>
</svg>
