<svg id="Capa_1" enable-background="new 0 0 512 512" height="512" viewBox="0 0 512 512" width="512" xmlns="http://www.w3.org/2000/svg"><g><path d="m314.24 96.608c0-17.058-12.415-30.935-27.675-30.935s-27.675 13.878-27.675 30.935c0 17.058 12.415 30.936 27.675 30.936 15.261 0 27.675-13.877 27.675-30.936zm-40.247 0c0-8.731 5.64-15.834 12.573-15.834s12.573 7.103 12.573 15.834-5.64 15.834-12.573 15.834-12.573-7.102-12.573-15.834z"/><path d="m140.657 291.571c0 4.17 3.381 7.551 7.551 7.551s7.551-3.381 7.551-7.551v-9.017c17.225-3.333 27.286-17.514 29.513-30.76 2.857-16.992-6.033-31.766-22.647-37.638-2.256-.797-4.565-1.634-6.866-2.506v-36.54c5.845 1.362 9.331 4.321 9.63 4.583 3.069 2.779 7.808 2.571 10.619-.477 2.827-3.066 2.634-7.842-.431-10.67-.436-.402-7.787-7.021-19.818-8.794v-7.524c0-4.17-3.381-7.551-7.551-7.551s-7.551 3.381-7.551 7.551v8.102c-1.168.254-2.354.55-3.566.915-10.935 3.294-19.107 12.654-21.325 24.428-2.022 10.73 1.413 21.076 8.964 26.999 4.028 3.159 9.045 6.053 15.928 9.111v46.241c-6.025-.426-10.154-1.865-16.961-6.318-3.49-2.283-8.17-1.305-10.453 2.185s-1.305 8.17 2.185 10.453c9.831 6.431 16.538 8.329 25.228 8.805zm-6.608-90.781c-3.098-2.43-4.417-7.151-3.443-12.319.88-4.668 3.985-10.284 10.051-12.49v29.014c-2.49-1.342-4.742-2.742-6.608-4.205zm23.543 27.605c14.276 5.046 13.396 17.27 12.787 20.896-1.196 7.114-6.175 14.659-14.62 17.601v-39.154c.607.218 1.205.435 1.833.657z"/><path d="m88.457 144.677h-49.143c-4.17 0-7.551 3.381-7.551 7.551s3.381 7.551 7.551 7.551h49.142c4.17 0 7.551-3.381 7.551-7.551s-3.38-7.551-7.55-7.551z"/><path d="m88.457 180.812h-49.143c-4.17 0-7.551 3.381-7.551 7.551s3.381 7.551 7.551 7.551h49.142c4.17 0 7.551-3.381 7.551-7.551s-3.38-7.551-7.55-7.551z"/><path d="m96.007 224.498c0-4.17-3.381-7.551-7.551-7.551h-49.142c-4.17 0-7.551 3.381-7.551 7.551s3.381 7.551 7.551 7.551h49.142c4.171 0 7.551-3.38 7.551-7.551z"/><path d="m39.314 253.083c-4.17 0-7.551 3.381-7.551 7.551s3.381 7.551 7.551 7.551h24.571c4.17 0 7.551-3.381 7.551-7.551s-3.381-7.551-7.551-7.551z"/><path d="m509.198 234.615.904-29.002c.13-4.168-3.144-7.652-7.312-7.782-4.174-.139-7.652 3.144-7.782 7.312l-.904 29.003c-.197 6.348.237 12.741 1.289 19.002 1.903 11.323 1.416 22.702-1.448 33.822l-35.695 138.599h-113.817l-.083-19.761c-.031-7.342-3.192-14.356-8.672-19.243l-2.922-2.606c-16.622-14.822-24.246-37.599-19.898-59.441 1.839-8.397 2.201-17.011.864-25.511l-14.637-94.617c-.487-3.15 1.678-6.108 4.828-6.596 8.191-1.265 16.317.249 23.567 4.424 9.253 5.204 16 15.05 17.613 25.722 0 0 3.52 22.752 5.907 38.073 1.704 10.934 8.192 20.355 17.859 25.883 17.484 9.784 39.693 3.533 49.506-13.936l28.001-49.847c4.62-8.224 7.359-17.161 8.141-26.563l2.682-32.255c.493-5.925-2.042-11.608-6.778-15.202l-27.398-20.789v-36.46l65.877 34.19c5.038 2.615 8.179 7.97 8.002 13.644l-.867 27.833c-.13 4.168 3.144 7.652 7.312 7.782 4.174.146 7.653-3.144 7.782-7.312l.867-27.833c.356-11.443-5.979-22.244-16.14-27.518l-72.834-37.8v-39.179c0-8.605-7-15.605-15.605-15.605h-178.23c-4.431 0-8.33 2.502-10.178 6.529-1.847 4.028-1.198 8.616 1.693 11.974l4.413 5.124-11.699 13.587c-4.831 5.611-4.832 13.757 0 19.37l11.697 13.586-9.184 10.665h-201.075c-8.185-.001-14.844 6.658-14.844 14.843v202.352c0 8.185 6.659 14.844 14.844 14.844h82.523c4.17 0 7.551-3.381 7.551-7.551s-3.381-7.551-7.551-7.551h-82.265v-201.836h194.898c.445 2.575 1.578 5.063 3.407 7.187l11.696 13.584-11.697 13.585c-4.832 5.611-4.832 13.758 0 19.37l11.698 13.588-11.699 13.589c-4.831 5.611-4.831 13.757 0 19.369l11.699 13.588-3.221 3.741c-2.891 3.358-3.539 7.946-1.692 11.973.922 2.011 15.978 18.573 15.978 18.573l-11.699 13.589c-4.831 5.611-4.831 13.757 0 19.369l11.698 13.589-6.149 7.142h-96.348c-4.17 0-7.551 3.381-7.551 7.551s3.381 7.551 7.551 7.551h98.139c3.264 0 6.357-1.419 8.486-3.892l7.463-8.668c4.83-5.612 4.83-13.758-.001-19.368l-11.698-13.589 11.699-13.589c4.831-5.612 4.831-13.758 0-19.369l-2.031-2.36h46.227l6.843 44.232c1.069 6.749.73 13.593-.751 20.254-5.389 27.067 4.06 55.293 24.658 73.661l2.923 2.606c2.289 2.041 3.609 4.969 3.622 8.036l.083 19.725c-7.237.293-13.039 6.256-13.039 13.564v34.201c0 7.494 6.097 13.591 13.591 13.591h28.804c4.17 0 7.551-3.381 7.551-7.551s-3.381-7.551-7.551-7.551h-27.294v-31.181h137.152v31.181h-71.597c-4.17 0-7.551 3.381-7.551 7.551s3.381 7.551 7.551 7.551h73.107c7.494 0 13.591-6.097 13.591-13.591v-34.201c0-6.226-4.213-11.475-9.935-13.078l34.857-135.347c3.394-13.181 3.972-26.67 1.716-40.092-.888-5.283-1.254-10.676-1.088-16.031zm-173.696-63.808c0-8.731 5.64-15.834 12.573-15.834s12.573 7.103 12.573 15.834-5.64 15.834-12.573 15.834-12.573-7.104-12.573-15.834zm69.695 99.757c-5.741 10.22-18.734 13.878-28.904 8.188-5.599-3.202-9.38-8.692-10.373-15.064-.325-2.088-.672-4.316-1.028-6.603h43.275c1.803 0 3.524-.339 5.124-.93zm36.085-104.439c.598.454.918 1.172.856 1.921l-2.682 32.255c-.601 7.227-2.707 14.096-6.258 20.418l-10.187 18.134v-86.59zm-202.815 75.858c2.959-5.342 2.368-12.015-1.773-16.827l-11.699-13.588 11.699-13.589c4.831-5.612 4.831-13.758 0-19.369l-11.698-13.588 11.698-13.586c4.831-5.612 4.831-13.759-.001-19.37l-11.696-13.584 11.696-13.582c4.831-5.611 4.832-13.757 0-19.371l-11.697-13.586 11.697-13.586c4.509-5.236 4.811-12.68.905-18.211h169.809c.278 0 .503.226.503.503v201.332h-45.361c-1.406-9.071-2.529-16.325-2.529-16.325-1.335-8.833-5.014-17.099-10.427-23.965 14.557-.884 26.157-14.399 26.157-30.887 0-17.058-12.415-30.936-27.675-30.936s-27.675 13.878-27.675 30.936c0 4.775.974 9.299 2.709 13.341-5.772-1.599-11.81-2.18-17.809-1.7l42.49-101.244c1.614-3.845-.195-8.271-4.04-9.884-3.847-1.613-8.271.196-9.884 4.04l-45.544 108.521c-.914 2.177-.729 4.538.3 6.471-3.596 4.426-5.4 10.281-4.462 16.347l5.458 35.284h-51.151z"/></g></svg>